<svg width="1920" height="1080" viewBox="0 0 1920 1080" fill="none" xmlns="http://www.w3.org/2000/svg">
<rect width="1920" height="1080" fill="#2C3971"/>
<path d="M2072.89 841.944V833.894H2062.54C2065.65 833.089 2073.23 830.674 2075.65 826.112C2083.23 812.695 2057.02 803.572 2047.71 796.059C2047.02 795.522 2045.64 794.449 2044.26 793.107C2045.64 792.839 2046.33 792.302 2046.33 791.497C2046.33 790.692 2044.95 789.887 2043.23 789.887V783.715C2043.57 783.715 2044.26 783.179 2044.26 782.91C2044.26 782.642 2043.57 782.105 2042.88 782.105V773.519H2041.85V782.105C2040.47 782.105 2040.12 782.642 2040.12 782.91C2040.12 783.179 2040.81 783.715 2041.5 783.715V789.887C2039.43 789.887 2038.06 790.692 2038.06 791.497C2038.06 792.302 2038.75 792.839 2040.12 793.107C2038.75 794.18 2037.37 795.522 2036.68 796.059C2033.92 798.474 2029.43 800.889 2024.95 803.572L2023.92 774.324H2025.3V768.957L2027.36 761.98H2023.57V759.297H2023.23L2021.16 668.868H2022.54V664.843L2024.26 659.477H2021.16V657.33H2019.43L2018.74 606.883H2019.78V603.663L2021.16 599.37H2018.74V597.76H2018.4C2019.43 597.223 2020.47 596.418 2020.81 595.345C2023.57 589.71 2013.91 585.148 2010.47 581.928C2010.47 581.928 2009.78 581.123 2009.09 580.855C2009.43 580.855 2009.78 580.587 2009.78 580.318C2009.78 580.05 2009.43 579.782 2008.74 579.513V576.83C2008.74 576.83 2009.09 576.83 2009.09 576.562C2009.09 576.562 2009.09 576.562 2008.74 576.293V572.805H2008.4V576.293C2008.05 576.293 2007.71 576.293 2007.71 576.562C2007.71 576.562 2007.71 576.562 2008.05 576.83V579.513C2007.36 579.513 2006.67 579.782 2006.67 580.318C2006.67 580.587 2006.67 580.855 2007.36 580.855C2007.02 581.392 2006.33 581.928 2005.98 581.928C2002.53 585.148 1992.88 589.442 1995.64 595.345C1995.98 596.418 1997.02 597.223 1998.05 597.76V599.37H1995.64L1997.02 603.663V606.883H1998.05L1997.36 657.33H1995.64V659.477H1992.53L1994.26 664.843V668.868H1995.29L1993.22 759.297V761.98H1989.43L1991.5 768.957V774.324H1992.88L1991.15 817.525C1987.36 819.94 1983.57 822.624 1981.5 825.575C1979.77 824.502 1978.39 823.697 1977.36 822.892C1977.01 822.624 1975.98 821.819 1974.94 821.014C1975.63 821.014 1976.32 820.477 1976.32 819.94C1976.32 819.404 1975.29 818.867 1974.25 818.867V814.574C1974.25 814.574 1974.94 814.305 1974.94 814.037C1974.94 813.769 1974.6 813.5 1973.91 813.5V807.597H1973.22V813.5C1972.53 813.5 1971.84 813.769 1971.84 814.037C1971.84 814.305 1972.18 814.574 1972.87 814.574V818.867C1971.49 818.867 1970.46 819.404 1970.46 819.94C1970.46 820.477 1971.15 820.745 1971.84 821.014C1970.81 821.819 1969.77 822.624 1969.43 822.892C1965.29 826.38 1955.63 830.405 1951.49 835.235C1949.42 834.162 1947.7 833.089 1946.32 832.015C1945.97 831.747 1945.28 831.21 1944.25 830.405C1944.94 830.405 1945.28 829.869 1945.28 829.6C1945.28 829.332 1944.59 828.795 1943.56 828.795V825.575C1943.56 825.575 1944.25 825.575 1944.25 825.039C1944.25 824.502 1944.25 824.77 1943.56 824.502V819.94H1942.87V824.502C1942.18 824.502 1941.84 824.502 1941.84 825.039C1941.84 825.575 1941.84 825.307 1942.53 825.575V828.795C1941.49 828.795 1940.8 829.332 1940.8 829.6C1940.8 829.869 1941.15 830.137 1941.84 830.405C1941.15 830.942 1940.46 831.747 1939.77 832.015C1938.04 833.625 1934.59 835.235 1931.83 837.114L1930.11 794.449H1931.14V790.424L1932.52 785.057H1929.42V782.91L1927.7 738.099H1928.73V734.879L1930.11 730.585H1927.7V728.975H1926.32L1925.63 688.993H1926.32V686.578L1927.35 683.358H1925.28V682.017C1925.97 681.48 1926.66 680.943 1927.01 680.138C1929.08 675.845 1921.83 672.357 1919.07 669.942C1919.07 669.942 1918.38 669.405 1918.04 669.137C1918.38 669.137 1918.73 668.868 1918.73 668.6C1918.73 668.6 1918.38 668.063 1917.69 668.063V666.185C1917.69 666.185 1917.69 666.185 1917.35 666.185H1917C1917 666.185 1917 666.185 1917.35 666.185V668.063C1916.66 668.063 1916.32 668.332 1916.32 668.6C1916.32 668.6 1916.32 668.868 1917 669.137C1916.66 669.405 1916.32 669.942 1915.97 669.942C1913.21 672.357 1905.97 675.845 1908.04 680.138C1908.38 680.943 1909.07 681.48 1909.76 682.017V683.358H1907.69L1908.73 686.578V688.993H1909.42L1908.73 728.975H1907.35V730.585H1904.93L1906.31 734.879V738.099H1907.35L1905.62 782.91V785.057H1902.52L1904.24 790.424V792.839C1895.62 786.667 1884.24 781.3 1878.38 776.47C1877.69 775.665 1875.62 774.324 1873.9 772.982C1875.62 772.714 1876.65 771.909 1876.65 771.104C1876.65 770.299 1874.93 769.225 1872.52 768.957V764.664C1873.21 764.664 1873.9 764.127 1873.9 763.59C1873.9 763.054 1873.21 762.785 1872.17 762.517V755.809C1872.17 755.809 1872.17 755.809 1872.52 755.809C1876.65 756.614 1880.79 755.004 1883.21 752.32C1880.79 753.662 1877.34 753.93 1874.24 753.125C1870.1 752.052 1867.34 748.832 1867.69 745.344C1867.69 743.734 1868.38 742.392 1869.41 741.319C1867 742.392 1865.27 744.27 1864.58 746.417C1863.55 750.174 1866.31 753.93 1870.79 755.54L1870.1 762.249C1869.07 762.249 1868.38 762.785 1868.38 763.322C1868.38 763.859 1869.07 764.127 1870.1 764.395V768.689C1867.34 768.689 1865.62 769.762 1865.62 770.835C1865.62 771.909 1866.65 772.445 1868.38 772.714C1866.65 774.055 1864.93 775.665 1863.89 776.202C1853.89 784.252 1829.06 793.644 1827.34 806.255H1813.2V796.327H1793.88C1801.47 793.107 1809.75 788.277 1813.54 781.569C1832.51 748.295 1767.33 726.024 1744.22 706.972C1742.5 705.63 1738.7 702.947 1735.6 699.995C1738.7 699.19 1740.77 697.848 1740.77 696.238C1740.77 694.628 1737.33 692.482 1732.84 691.945V685.773C1732.84 685.237 1731.81 684.7 1731.12 684.7V676.65C1731.12 676.65 1731.81 676.918 1732.5 676.918C1740.77 678.26 1749.05 675.308 1753.53 670.21C1749.4 672.357 1743.88 673.162 1738.7 672.357C1727.67 670.478 1720.77 662.16 1722.84 653.573C1723.53 651.427 1724.57 649.548 1725.94 647.938C1721.46 650.085 1718.01 653.842 1716.63 658.135C1714.56 665.648 1720.08 673.162 1728.7 675.845V684.163C1728.01 684.163 1727.32 684.7 1726.98 685.237V691.408C1722.15 691.945 1718.7 693.555 1718.7 695.702C1718.7 697.848 1720.77 698.653 1723.88 699.458C1720.77 702.41 1716.63 705.093 1715.25 706.435C1692.15 725.487 1626.62 747.759 1645.93 781.032C1649.73 787.74 1658 792.57 1665.59 795.79H1647.31V805.719H1628C1626.28 792.839 1601.1 783.715 1591.44 775.665C1590.75 774.86 1588.68 773.519 1586.96 772.177C1588.68 771.909 1589.72 771.104 1589.72 770.299C1589.72 769.494 1587.99 768.42 1585.58 768.152V763.859C1586.27 763.859 1586.96 763.322 1586.96 762.785C1586.96 762.249 1586.27 761.98 1585.24 761.712V755.004C1585.24 755.004 1585.24 755.004 1585.58 755.004C1589.72 755.809 1593.86 754.199 1596.27 751.515C1593.86 752.857 1590.41 753.125 1587.31 752.32C1583.17 751.247 1580.41 748.027 1580.75 744.539C1580.75 742.929 1581.44 741.587 1582.48 740.514C1580.06 741.587 1578.34 743.465 1577.65 745.612C1576.61 749.369 1579.37 753.125 1583.86 754.735L1583.17 761.444C1582.13 761.444 1581.44 761.98 1581.44 762.517C1581.44 763.054 1582.13 763.322 1583.17 763.59V767.884C1580.41 767.884 1578.68 768.957 1578.68 770.03C1578.68 771.104 1579.72 771.64 1581.44 771.909C1579.72 773.25 1577.99 774.86 1576.96 775.397C1570.06 781.032 1555.58 787.472 1546.95 794.985V793.375H1547.99V789.35L1549.37 783.984H1546.27V781.837L1544.54 737.025H1545.58V733.805L1546.95 729.512H1544.54V727.902H1543.16L1542.47 687.92H1543.16V685.505L1544.2 682.285H1542.13V680.943C1542.82 680.407 1543.51 679.87 1543.85 679.065C1545.92 674.772 1538.68 671.283 1535.92 668.868C1535.92 668.868 1535.23 668.332 1534.88 668.063C1535.23 668.063 1535.57 667.795 1535.57 667.527C1535.57 667.527 1535.23 666.99 1534.54 666.99V665.112C1534.54 665.112 1534.54 665.112 1534.19 665.112H1533.85C1533.85 665.112 1533.85 665.112 1534.19 665.112V666.99C1533.5 666.99 1533.16 667.258 1533.16 667.527C1533.16 667.527 1533.16 667.795 1533.85 668.063C1533.5 668.332 1533.16 668.868 1532.82 668.868C1530.06 671.283 1522.81 674.772 1524.88 679.065C1525.23 679.87 1525.92 680.407 1526.61 680.943V682.285H1524.54L1525.57 685.505V687.92H1526.26L1525.57 727.902H1524.19V729.512H1521.78L1523.16 733.805V737.025H1524.19L1522.47 781.837V783.984H1519.37L1521.09 789.35V793.375H1522.12L1520.4 835.504C1517.64 833.894 1514.88 832.284 1512.81 830.942C1512.47 830.674 1511.78 830.137 1510.74 829.332C1511.43 829.332 1511.78 828.795 1511.78 828.527C1511.78 828.259 1511.09 827.722 1510.05 827.722V824.502C1510.05 824.502 1510.74 824.502 1510.74 823.965C1510.74 823.429 1510.74 823.697 1510.05 823.429V818.867H1509.36V823.429C1508.67 823.429 1508.33 823.429 1508.33 823.965C1508.33 824.502 1508.33 824.234 1509.02 824.502V827.722C1507.98 827.722 1507.29 828.259 1507.29 828.527C1507.29 828.795 1507.64 829.064 1508.33 829.332C1507.64 829.869 1506.95 830.674 1506.26 830.942C1504.88 832.015 1503.16 833.089 1501.09 834.162C1496.95 829.064 1487.29 825.307 1483.15 821.819C1482.81 821.55 1481.77 820.745 1480.74 819.94C1481.43 819.94 1482.12 819.404 1482.12 818.867C1482.12 818.33 1481.08 817.794 1480.05 817.794V813.5C1480.05 813.5 1480.74 813.232 1480.74 812.964C1480.74 812.695 1480.39 812.427 1479.7 812.427V806.524H1479.01V812.427C1478.33 812.427 1477.64 812.695 1477.64 812.964C1477.64 813.232 1477.98 813.5 1478.67 813.5V817.794C1477.29 817.794 1476.26 818.33 1476.26 818.867C1476.26 819.404 1476.95 819.672 1477.64 819.94C1476.6 820.745 1475.57 821.55 1475.22 821.819C1474.53 822.355 1473.5 822.892 1472.81 823.697C1470.05 820.477 1465.22 817.525 1460.74 814.842L1459.36 773.519H1460.74V768.152L1462.81 761.175H1459.01V758.492H1458.67L1456.6 668.063H1457.98V664.038L1459.7 658.672H1456.6V656.525H1454.87L1454.18 606.078H1455.22V602.858L1456.6 598.565H1454.18V596.955C1455.22 596.418 1456.25 595.613 1456.6 594.54C1459.36 588.905 1449.7 584.343 1446.25 581.123C1446.25 581.123 1445.56 580.318 1444.87 580.05C1445.22 580.05 1445.56 579.782 1445.56 579.513C1445.56 579.245 1445.22 578.977 1444.53 578.708V576.025C1444.53 576.025 1444.87 576.025 1444.87 575.757C1444.87 575.757 1444.87 575.757 1444.53 575.488V572H1444.18V575.488C1443.84 575.488 1443.49 575.488 1443.49 575.757C1443.49 576.025 1443.49 575.757 1443.84 576.025V578.708C1443.15 578.708 1442.46 578.977 1442.46 579.513C1442.46 579.782 1442.46 580.05 1443.15 580.05C1442.8 580.587 1442.11 581.123 1441.77 581.123C1438.32 584.343 1428.66 588.637 1431.42 594.54C1431.77 595.613 1432.8 596.418 1433.84 596.955V598.565H1431.42L1432.8 602.858V606.078H1433.84L1433.15 656.525H1431.42V658.672H1428.32L1430.04 664.038V668.063H1431.08L1429.01 758.492V761.175H1425.21L1427.28 768.152V773.519H1428.66L1427.63 799.547C1424.87 797.937 1422.8 796.595 1420.73 794.985C1420.04 794.449 1418.66 793.375 1417.28 792.034C1418.66 791.765 1419.35 791.229 1419.35 790.424C1419.35 789.619 1417.97 788.814 1416.25 788.814V782.642C1416.59 782.642 1417.28 782.105 1417.28 781.837C1417.28 781.569 1416.59 781.032 1415.9 781.032V772.445H1414.87V781.032C1413.49 781.032 1413.14 781.569 1413.14 781.837C1413.14 782.105 1413.83 782.642 1414.52 782.642V788.814C1412.45 788.814 1411.07 789.619 1411.07 790.424C1411.07 791.229 1411.76 791.765 1413.14 792.034C1411.76 793.107 1410.38 794.449 1409.7 794.985C1400.38 802.767 1373.83 811.622 1381.76 825.039C1384.52 829.6 1391.76 832.015 1394.87 832.82H1384.52V840.87H1369V900.977H1386.93V1232.37H2073.23V900.977H2083.58V840.87H2072.54L2072.89 841.944Z" fill="#3F52A2" fill-opacity="0.5"/>
<path d="M83.1399 1015.7C83.1399 1015.7 84.9888 973.773 93.7984 956.854L98.2575 964.124L101.629 963.445L100.215 966.435C100.215 966.435 102.173 970.172 102.282 972.822L105.871 972.482L103.369 975.404L105.001 976.219C105.001 976.219 105.436 980.364 102.282 984.305C102.282 984.305 111.417 977.306 111.852 969.017C112.287 960.795 104.239 953.864 104.239 953.864L113.919 958.892L116.964 956.922L115.442 960.251C115.442 960.251 121.423 962.765 124.251 965.755L127.731 964.192L125.556 968.405C125.556 968.405 129.689 971.191 130.45 974.792C130.45 974.792 135.236 966.299 128.275 958.688C121.315 951.078 107.611 949.447 107.611 949.447C107.611 949.447 112.396 948.088 120.771 948.02L122.076 945.914L123.707 948.7C123.707 948.7 131.647 946.458 141 951.69C141 951.69 135.671 942.788 119.466 941.497C103.152 940.206 98.3662 943.875 98.3662 943.875C98.3662 943.875 91.8407 929.334 58.4515 937.624C58.4515 937.624 67.261 937.76 74.8742 939.799L79.9859 937.76L77.0494 940.478L80.9647 941.769L85.4239 940.614L82.8136 942.992L86.5115 945.37C86.5115 945.37 71.2851 940.342 60.7355 948.02C50.1858 955.699 52.1434 964.94 52.1434 964.94C52.1434 964.94 54.9712 959.504 58.7778 957.397L59.7566 954.204L60.7355 956.446C60.7355 956.446 65.9559 951.69 79.7684 951.418C79.7684 951.418 68.8924 954.408 66.7172 962.358C64.542 970.308 69.0012 976.287 69.0012 976.287C69.0012 976.287 67.261 969.017 74.6567 963.852L73.4603 961.61L75.853 962.29L83.2487 958.417L80.7472 954.883L84.9888 956.922L89.0129 955.699C89.0129 955.699 71.2851 983.422 69.4362 1014.95C69.4362 1014.95 71.3939 1016.85 83.0312 1015.7H83.1399Z" fill="#3F52A2" fill-opacity="0.5"/>
<path d="M1321.66 973.817C1321.66 973.817 1320.39 945.35 1314.35 933.861L1311.3 938.798L1308.98 938.337L1309.95 940.367C1309.95 940.367 1308.61 942.904 1308.54 944.704L1306.08 944.473L1307.79 946.457L1306.67 947.011C1306.67 947.011 1306.38 949.825 1308.54 952.501C1308.54 952.501 1302.28 947.749 1301.98 942.12C1301.68 936.537 1307.2 931.831 1307.2 931.831L1300.56 935.246L1298.47 933.907L1299.52 936.168C1299.52 936.168 1295.42 937.875 1293.48 939.905L1291.09 938.844L1292.59 941.705C1292.59 941.705 1289.75 943.597 1289.23 946.042C1289.23 946.042 1285.95 940.275 1290.72 935.107C1295.49 929.94 1304.88 928.832 1304.88 928.832C1304.88 928.832 1301.6 927.91 1295.87 927.863L1294.97 926.433L1293.85 928.325C1293.85 928.325 1288.41 926.802 1282 930.355C1282 930.355 1285.65 924.311 1296.76 923.434C1307.94 922.557 1311.22 925.049 1311.22 925.049C1311.22 925.049 1315.69 915.175 1338.58 920.804C1338.58 920.804 1332.54 920.897 1327.32 922.281L1323.82 920.897L1325.83 922.742L1323.15 923.619L1320.09 922.834L1321.88 924.449L1319.35 926.064C1319.35 926.064 1329.78 922.65 1337.01 927.863C1344.24 933.077 1342.9 939.352 1342.9 939.352C1342.9 939.352 1340.96 935.661 1338.35 934.23L1337.68 932.062L1337.01 933.585C1337.01 933.585 1333.43 930.355 1323.97 930.17C1323.97 930.17 1331.42 932.2 1332.91 937.599C1334.4 942.997 1331.35 947.057 1331.35 947.057C1331.35 947.057 1332.54 942.12 1327.47 938.614L1328.29 937.091L1326.65 937.552L1321.58 934.923L1323.3 932.523L1320.39 933.907L1317.63 933.077C1317.63 933.077 1329.78 951.901 1331.05 973.31C1331.05 973.31 1329.71 974.601 1321.73 973.817H1321.66Z" fill="#3F52A2" fill-opacity="0.5"/>
<path d="M41.9656 1016.12C41.9656 1016.12 40.5958 989.708 34.2449 979.061L31.0073 983.634L28.5167 983.224L29.5129 985.067C29.5129 985.067 28.1431 987.388 28.0186 989.094L25.4035 988.889L27.1469 990.732L25.9016 991.278C25.9016 991.278 25.6526 993.872 27.8941 996.397C27.8941 996.397 21.2941 991.961 21.0451 986.774C20.6715 981.586 26.5243 977.218 26.5243 977.218L19.5508 980.426L17.3093 979.197L18.43 981.313C18.43 981.313 14.1961 982.883 12.0791 984.794L9.5886 983.77L11.0829 986.432C11.0829 986.432 8.09426 988.139 7.59616 990.459C7.59616 990.459 4.10942 985.067 9.21503 980.289C14.1961 975.512 24.0337 974.419 24.0337 974.419C24.0337 974.419 20.6715 973.6 14.5697 973.532L13.5735 972.235L12.4527 974.01C12.4527 974.01 6.72446 972.577 0 975.853C0 975.853 3.73584 970.256 15.4414 969.437C27.1469 968.618 30.6337 970.938 30.6337 970.938C30.6337 970.938 35.2412 961.792 59.2749 966.98C59.2749 966.98 52.924 967.048 47.4448 968.345L43.8335 967.048L45.9505 968.754L43.2109 969.573L39.9732 968.823L41.8411 970.324L39.226 971.826C39.226 971.826 50.1844 968.686 57.656 973.532C65.1276 978.378 63.7578 984.18 63.7578 984.18C63.7578 984.18 61.7654 980.767 58.9013 979.47L58.1541 977.491L57.5315 978.856C57.5315 978.856 53.7957 975.853 43.9581 975.716C43.9581 975.716 51.6787 977.559 53.2976 982.61C54.9164 987.593 51.6787 991.415 51.6787 991.415C51.6787 991.415 52.924 986.842 47.6939 983.566L48.5655 982.132L46.8222 982.542L41.4675 980.085L43.3354 977.832L40.2222 979.129L37.3581 978.378C37.3581 978.378 50.0599 995.851 51.4297 1015.71C51.4297 1015.71 49.9353 1016.94 41.7165 1016.19L41.9656 1016.12Z" fill="#3F52A2" fill-opacity="0.5"/>
<path d="M1342.14 973.7C1342.14 973.7 1342.97 957.674 1346.82 951.214L1348.79 953.988L1350.3 953.74L1349.69 954.858C1349.69 954.858 1350.53 956.266 1350.6 957.301L1352.19 957.177L1351.13 958.295L1351.89 958.626C1351.89 958.626 1352.04 960.2 1350.68 961.732C1350.68 961.732 1354.68 959.04 1354.83 955.893C1355.06 952.746 1351.51 950.096 1351.51 950.096L1355.74 952.042L1357.1 951.296L1356.42 952.58C1356.42 952.58 1358.99 953.533 1360.27 954.692L1361.78 954.071L1360.88 955.686C1360.88 955.686 1362.69 956.721 1362.99 958.129C1362.99 958.129 1365.11 954.858 1362.01 951.959C1358.99 949.06 1353.02 948.398 1353.02 948.398C1353.02 948.398 1355.06 947.901 1358.76 947.859L1359.36 947.073L1360.04 948.149C1360.04 948.149 1363.52 947.28 1367.6 949.267C1367.6 949.267 1365.33 945.872 1358.23 945.375C1351.13 944.878 1349.01 946.286 1349.01 946.286C1349.01 946.286 1346.22 940.737 1331.64 943.884C1331.64 943.884 1335.49 943.925 1338.81 944.712L1341.01 943.925L1339.72 944.961L1341.38 945.458L1343.35 945.002L1342.21 945.913L1343.8 946.824C1343.8 946.824 1337.15 944.919 1332.62 947.859C1328.09 950.8 1328.92 954.32 1328.92 954.32C1328.92 954.32 1330.13 952.249 1331.86 951.462L1332.32 950.261L1332.69 951.089C1332.69 951.089 1334.96 949.267 1340.93 949.185C1340.93 949.185 1336.25 950.303 1335.26 953.367C1334.28 956.39 1336.25 958.709 1336.25 958.709C1336.25 958.709 1335.49 955.935 1338.66 953.947L1338.13 953.077L1339.19 953.326L1342.44 951.835L1341.31 950.468L1343.2 951.255L1344.93 950.8C1344.93 950.8 1337.23 961.401 1336.4 973.451C1336.4 973.451 1337.3 974.197 1342.29 973.741L1342.14 973.7Z" fill="#3F52A2" fill-opacity="0.5"/>
<path d="M560.05 1014.92C370.845 997.721 198.572 983.186 -53 1036.62V1083.07H1925V1014.92C1889.22 993.223 1888.2 985.804 1783.59 967.204C1670.16 947.039 1477.92 945.228 1265.63 983.186C1021.15 1026.9 675.975 1025.46 560.05 1014.92Z" fill="#26315F"/>
</svg>
