<svg width="53" height="38" viewBox="0 0 53 38" fill="none" xmlns="http://www.w3.org/2000/svg">
<path d="M14.706 21.4656C13.978 28.4275 8.73626 32.0534 0 33.3588V38C16.0165 37.1298 24.7527 28.2824 24.7527 15.084C24.7527 6.23665 19.9478 0 12.0852 0C5.53297 0 0.436813 4.35115 0.436813 11.0229C0.436813 17.1145 4.22253 20.4504 9.02747 21.4656H14.706ZM42.9533 21.4656C42.0797 28.4275 36.9835 32.0534 28.2473 33.3588V38C44.2637 37.1298 53 28.2824 53 15.084C53 6.23665 48.1951 0 40.1868 0C33.7802 0 28.5385 4.35115 28.5385 11.0229C28.5385 17.1145 32.3242 20.4504 37.2747 21.4656H42.9533Z" fill="#F8B641" fill-opacity="0.5"/>
</svg>
