<svg id="Layer_1" data-name="Layer 1" xmlns="http://www.w3.org/2000/svg" viewBox="0 0 456.4 97.7"><defs><style>.cls-1{fill:#2a396b;stroke:#fff;stroke-miterlimit:10;stroke-width:2px;}.cls-2{fill:#fff;}</style></defs><title>Simatex Logo 4</title><circle class="cls-1" cx="48.9" cy="48.9" r="47.9"/><path class="cls-2" d="M2153.4-201.8l9.1-7.4-1.3-1.7-2.2,1.7a14.3,14.3,0,0,0-12.8-6.8,17,17,0,0,0-10.3,3.4,11.4,11.4,0,0,0-4.8,9.3c0,4.7,1.8,8.1,5.5,10.1s9.2,4,16.8,6.1l-2.2,2.7a84,84,0,0,1-9.6-3.1,56.3,56.3,0,0,1-6.9-3.3,11.1,11.1,0,0,1-5.6-10.2v-1.2c.1-.7.1-1.6.2-2.9h-2a28.2,28.2,0,0,0-1.1,8.1c0,5.7,1.6,9.7,5,12s8.6,4.6,15.3,6.5l-7.2,9.1-3.4-.3c-7.4,0-12.8,1.9-16.2,5.6q-8.1,8.4-8.1,13.5a8.2,8.2,0,0,0,1.6,5.1,5.7,5.7,0,0,0,4.8,2.1c2.2,0,4.6-1.7,7.1-4.9l12-15c3.9,1.3,8.3,4.1,13.3,8.2l11.6-8.8c5.4-4.2,8-9.1,8-14.8s-3.3-10.8-10-13.4l7.1-9-1.6-1.2-7.6,9.6-.6-.3h-.3l-15.6-5.5c-4.5-1.5-6.7-4-6.7-7.3a6.3,6.3,0,0,1,2-4.6,6.9,6.9,0,0,1,4.9-1.9,11.4,11.4,0,0,1,3.3.5,12.2,12.2,0,0,1,5,4.3l1.5,2.3C2151.9-204.3,2152.6-203.2,2153.4-201.8Zm-22.3,37.4a18.9,18.9,0,0,1,3.9.5l-12.4,15.3c-1.7,2.1-3.2,3.1-4.7,3.1s-4.1-1.7-4.1-5.1,2-7,5.9-9.8A18.6,18.6,0,0,1,2131.1-164.4Zm24.5,2.5a34.7,34.7,0,0,0-13.9-7.1l6.9-8.8,3,1,2.9,1c2.7,1,4,2.2,4,3.6s-1.2,3-3.7,5l1.3,1.5,2.9-2.8,1.5-1.5a8.5,8.5,0,0,0,2.3-5.4,6.4,6.4,0,0,0-3-5.7,11.7,11.7,0,0,0-2.5-1.2l-3.9-1.4,2.2-2.6c6.9,2.3,10.4,5.8,10.4,10.6a9.8,9.8,0,0,1-2.3,6.8c-1.7,1.6-3.2,3-4.6,4.1S2156.6-162.7,2155.6-161.9Z" transform="translate(-2092 228.6)"/><path d="M2231.8-159.1l-23.1-46.1h4.9l20.6,41.2,20.6-41.2h4.9l-23,46.1-2.5,4.9Z" transform="translate(-2092 228.6)"/><path d="M2262-193a2.5,2.5,0,0,1-1.8-.8,2.2,2.2,0,0,1-.8-1.9,2.5,2.5,0,0,1,.8-1.9,2.4,2.4,0,0,1,1.8-.7,2.5,2.5,0,0,1,1.9.7,2.9,2.9,0,0,1,.8,1.9,2.6,2.6,0,0,1-.8,1.9A2.6,2.6,0,0,1,2262-193Zm-2.1,4.8h4.3v34h-4.3Z" transform="translate(-2092 228.6)"/><path d="M2275.8-173.4v19.2h-4.2v-34h4.2v4.4h.2a13.8,13.8,0,0,1,8.3-4.2h2.2a14.9,14.9,0,0,1,4.7.7l-1.4,4a11.4,11.4,0,0,0-3.3-.5l-2.2.2a11,11,0,0,0-5.4,2.9A10.6,10.6,0,0,0,2275.8-173.4Z" transform="translate(-2092 228.6)"/><path d="M2303.7-188.2v-17h4.2v17h8.5v4.2h-8.5v29.8h-4.2V-184h-8.5v-4.2Z" transform="translate(-2092 228.6)"/><path d="M2325.1-158.6a14.4,14.4,0,0,1-4.4-10.5v-19.1h4.3v19.1a9.9,9.9,0,0,0,3.1,7.5,9.9,9.9,0,0,0,7.5,3.1,10.2,10.2,0,0,0,7.5-3.1,9.9,9.9,0,0,0,3.1-7.5v-19.1h4.3v19.1a14.4,14.4,0,0,1-4.4,10.5,14.4,14.4,0,0,1-10.5,4.4A14.4,14.4,0,0,1,2325.1-158.6Z" transform="translate(-2092 228.6)"/><path d="M2390-154.2h-4.2v-5.7l-.8.7a16.4,16.4,0,0,1-12,5,16.4,16.4,0,0,1-12-5,16.4,16.4,0,0,1-5-12,16.4,16.4,0,0,1,5-12,16,16,0,0,1,12-5,16,16,0,0,1,12,5l.8.7v-5.7h4.2Zm-4.2-16.9v-.2a12.3,12.3,0,0,0-3.8-8.9,12.3,12.3,0,0,0-9-3.8,12.3,12.3,0,0,0-9,3.8,12.3,12.3,0,0,0-3.8,9,12.3,12.3,0,0,0,3.8,9,12.2,12.2,0,0,0,9,3.7,12.2,12.2,0,0,0,9-3.7A12.5,12.5,0,0,0,2385.8-171.1Z" transform="translate(-2092 228.6)"/><path d="M2397.6-205.2h4.2v51h-4.2Z" transform="translate(-2092 228.6)"/><path d="M2426.7-181.8h25.5v4.2h-25.5v23.4h-4.3v-51h29.8v4.2h-25.5Z" transform="translate(-2092 228.6)"/><path d="M2488.9-154.2h-4.3v-5.7l-.7.7a16.4,16.4,0,0,1-12,5,16.8,16.8,0,0,1-12.1-5,16.3,16.3,0,0,1-4.9-12,16.3,16.3,0,0,1,4.9-12,16.4,16.4,0,0,1,12.1-5,16,16,0,0,1,12,5l.7.7v-5.7h4.3Zm-4.3-16.9v-.2a11.9,11.9,0,0,0-3.7-8.9,12.3,12.3,0,0,0-9-3.8,12.3,12.3,0,0,0-9,3.8,12.3,12.3,0,0,0-3.8,9,12.3,12.3,0,0,0,3.8,9,12.2,12.2,0,0,0,9,3.7,12.2,12.2,0,0,0,9-3.7A12,12,0,0,0,2484.6-171.1Z" transform="translate(-2092 228.6)"/><path d="M2498.4-193a2.7,2.7,0,0,1-1.9-.8,2.5,2.5,0,0,1-.7-1.9,2.8,2.8,0,0,1,.7-1.9,2.6,2.6,0,0,1,1.9-.7,2.6,2.6,0,0,1,1.9.7,2.9,2.9,0,0,1,.8,1.9,2.6,2.6,0,0,1-.8,1.9A2.7,2.7,0,0,1,2498.4-193Zm-2.1,4.8h4.2v34h-4.2Z" transform="translate(-2092 228.6)"/><path d="M2512.2-173.4v19.2H2508v-34h4.2v4.4h.2a13.6,13.6,0,0,1,8.3-4.2h2.2a14.9,14.9,0,0,1,4.7.7l-1.4,4a12,12,0,0,0-3.3-.5l-2.2.2a11,11,0,0,0-5.4,2.9A10.6,10.6,0,0,0,2512.2-173.4Z" transform="translate(-2092 228.6)"/><path d="M2534.1-173.2a8,8,0,0,1-3.9-4.7,10,10,0,0,1-.4-2.4,8.9,8.9,0,0,1,1-3.7,7.5,7.5,0,0,1,4.7-3.8,6.7,6.7,0,0,1,2.4-.4,7.4,7.4,0,0,1,3.7,1,7.8,7.8,0,0,1,3.9,4.6v.8l-4,1.4a2.9,2.9,0,0,0-.2-.9,3.6,3.6,0,0,0-1.8-2.2,4.1,4.1,0,0,0-1.8-.5,3.4,3.4,0,0,0-1.5.4,2.7,2.7,0,0,0-1.7,1.6,3.1,3.1,0,0,0-.5,1.8,2.2,2.2,0,0,0,.2,1.1,3.9,3.9,0,0,0,1.8,2.2l6.9,3.6a9.8,9.8,0,0,1,4.9,6,7.9,7.9,0,0,1,.5,3,10,10,0,0,1-1.2,4.7,10,10,0,0,1-6,4.9,10.5,10.5,0,0,1-3,.5,10,10,0,0,1-4.7-1.2,9.8,9.8,0,0,1-4.9-6,12.9,12.9,0,0,1-.4-1.9l4.2-1a5.1,5.1,0,0,0,.3,1.7,5.6,5.6,0,0,0,2.8,3.4,5.4,5.4,0,0,0,2.7.7,7.2,7.2,0,0,0,2.5-.5,4.5,4.5,0,0,0,2.7-2.6,5.2,5.2,0,0,0,.7-2.7,6.8,6.8,0,0,0-.5-2.4,5,5,0,0,0-2.6-2.8Z" transform="translate(-2092 228.6)"/></svg>