<svg id="Layer_5" data-name="Layer 5" xmlns="http://www.w3.org/2000/svg" width="191.146" height="42" viewBox="0 0 191.146 42">
  <circle id="Ellipse_103" data-name="Ellipse 103" cx="20" cy="20" r="20" transform="translate(1 1)" fill="#fff" stroke="#2a396b" stroke-width="2"/>
  <path id="Path_9661" data-name="Path 9661" d="M2681.605-211.079l3.841-3.09-.584-.71-.918.71a5.97,5.97,0,0,0-5.344-2.839,7.057,7.057,0,0,0-4.259,1.42,4.675,4.675,0,0,0-2.045,3.883,4.4,4.4,0,0,0,2.3,4.217,35.177,35.177,0,0,0,7.015,2.547l-.919,1.127a35.1,35.1,0,0,1-4.008-1.294,23.5,23.5,0,0,1-2.881-1.378,4.634,4.634,0,0,1-2.338-4.259v-.5c.042-.292.042-.668.083-1.211h-.835a13.434,13.434,0,0,0-.459,3.382c0,2.38.668,4.05,2.088,5.01a22.931,22.931,0,0,0,6.388,2.714l-3.006,3.8-1.378-.125c-3.132,0-5.386.793-6.806,2.338-2.255,2.338-3.34,4.217-3.34,5.637a3.383,3.383,0,0,0,.626,2.129,2.38,2.38,0,0,0,2,.877c.919,0,1.921-.71,2.965-2.046L2674.8-195a18.706,18.706,0,0,1,5.553,3.424l4.844-3.674a7.618,7.618,0,0,0,3.34-6.18,5.932,5.932,0,0,0-4.176-5.595l2.965-3.758-.668-.5-3.173,4.008-.25-.125h-.125l-6.514-2.3c-1.879-.626-2.8-1.67-2.8-3.048a2.629,2.629,0,0,1,.835-1.921,2.881,2.881,0,0,1,2.046-.793,4.762,4.762,0,0,1,1.378.209,5.094,5.094,0,0,1,2.088,1.8l.626.96Zm-9.311,15.616a7.893,7.893,0,0,1,1.628.209l-5.136,6.388a2.8,2.8,0,0,1-2,1.294,2.013,2.013,0,0,1-1.712-2.129,5.18,5.18,0,0,1,2.505-4.092,7.6,7.6,0,0,1,4.718-1.67Zm10.23,1.044a14.489,14.489,0,0,0-5.8-2.965l2.881-3.674,1.252.418,1.211.418c1.127.418,1.67.919,1.67,1.5s-.5,1.253-1.545,2.088l.543.626,1.211-1.169.626-.626a3.548,3.548,0,0,0,.96-2.255,2.672,2.672,0,0,0-1.253-2.38,4.887,4.887,0,0,0-1.044-.5l-1.628-.585.919-1.086c2.881.96,4.343,2.422,4.343,4.426a4.094,4.094,0,0,1-.96,2.839c-.71.668-1.336,1.253-1.921,1.712s-1.043.877-1.461,1.211Z" transform="translate(-2655.386 222.851)" fill="#2a396b"/>
</svg>
