<svg width="82" height="100" viewBox="0 0 82 100" fill="none" xmlns="http://www.w3.org/2000/svg">
<g clip-path="url(#clip0_20_16794)">
<path d="M4.83822e-07 83.0899C4.83822e-07 79.9269 -0.00282788 76.7669 4.83822e-07 73.604C4.83822e-07 71.7494 0.514763 71.2174 2.3136 71.2145C5.84906 71.2088 9.38169 71.2145 12.9171 71.2145C13.3725 71.2145 13.8081 71.2145 14.2408 70.9615C21.0261 66.9963 28.2243 66.1079 35.8015 67.9596C39.9818 68.9804 44.1791 69.9407 48.3679 70.9212C52.3785 71.8586 54.3951 74.8203 53.7446 78.9119C53.623 79.671 53.9426 79.5273 54.4178 79.4554C61.0871 78.4547 67.7535 77.4455 74.4284 76.4909C77.8479 76.002 81.0383 78.3426 81.8246 81.8161C82.5939 85.2148 80.7074 88.648 77.3841 89.732C67.5216 92.9409 57.6449 96.1038 47.7824 99.3099C44.3573 100.423 40.9689 100.02 37.5353 99.3271C29.613 97.7342 21.6794 96.193 13.7317 94.7179C11.7519 94.3499 9.71544 94.7035 7.70447 94.7524C5.83209 94.7955 3.96254 94.8962 2.09016 94.9451C0.625069 94.9853 0.0113139 94.3872 0.00282885 92.9007C-0.011313 89.6314 4.83822e-07 86.362 4.83822e-07 83.0927V83.0899ZM3.3997 83.0266C3.3997 85.5771 3.4195 88.1275 3.38556 90.678C3.37707 91.2991 3.55809 91.4802 4.15487 91.4342C5.24662 91.3537 6.34403 91.3163 7.4386 91.3019C9.69564 91.2732 11.9725 90.8476 14.2041 91.2646C22.18 92.7569 30.1447 94.3211 38.1038 95.9054C41.0735 96.4978 43.9952 96.9291 46.9848 95.9514C56.7427 92.7626 66.5203 89.6342 76.2839 86.4684C78.0148 85.9077 78.8973 84.2774 78.5041 82.486C78.1364 80.8183 76.4762 79.6452 74.7481 79.9011C67.5188 80.9736 60.3008 82.1209 53.0658 83.1215C50.5344 83.4723 48.0794 84.5132 45.4434 84.0761C44.609 83.9381 43.7548 83.9266 42.9091 83.8605C39.4925 83.6017 36.0758 83.34 32.6591 83.087C31.8898 83.0295 31.2987 82.7304 31.013 81.9656C30.5209 80.6429 31.5617 79.5531 33.1484 79.671C37.8322 80.0218 42.5188 80.3784 47.2054 80.6803C48.8798 80.7867 50.2629 79.579 50.5061 77.9688C50.7494 76.3586 49.751 74.8605 48.119 74.3918C47.8475 74.3142 47.5731 74.2509 47.2988 74.1848C43.3475 73.2589 39.385 72.3934 35.4507 71.4014C28.3289 69.6043 21.5946 70.3721 15.2986 74.3315C14.8206 74.6305 14.3059 74.6621 13.7713 74.6621C10.6262 74.6592 7.48103 74.6822 4.33589 74.6449C3.61182 74.6362 3.36576 74.8145 3.38273 75.588C3.43081 78.0666 3.3997 80.5451 3.3997 83.0237V83.0266Z" fill="white"/>
<path d="M64.7215 17.011C64.7215 18.88 64.7441 20.7461 64.7074 22.6151C64.696 23.2017 64.8799 23.6071 65.2872 24.0154C67.8016 26.5371 70.2906 29.0876 72.788 31.6265C74.1739 33.0383 74.1824 33.7428 72.8219 35.1316C70.3273 37.6735 67.8355 40.221 65.3183 42.7427C64.8799 43.1798 64.7017 43.6197 64.7074 44.2437C64.7356 47.9069 64.7243 51.5702 64.7187 55.2334C64.7187 56.9155 64.1417 57.505 62.4871 57.5078C58.8837 57.5165 55.2804 57.5222 51.6771 57.4963C51.0633 57.4906 50.6278 57.6689 50.195 58.1174C47.6919 60.7024 45.1605 63.2615 42.6348 65.8206C41.3733 67.1001 40.6182 67.0886 39.3397 65.7889C36.814 63.2241 34.2855 60.6679 31.7795 58.0829C31.3751 57.666 30.9678 57.4906 30.3908 57.4935C26.8214 57.5165 23.2548 57.5078 19.6854 57.505C17.8017 57.505 17.27 56.973 17.27 55.0896C17.27 51.4609 17.2559 47.8351 17.2813 44.2063C17.287 43.5795 17.0975 43.1482 16.6591 42.7082C14.0909 40.1377 11.551 37.5383 9.00835 34.9447C7.87417 33.7888 7.87134 32.9837 8.99986 31.8307C11.5171 29.2601 14.0287 26.6837 16.5799 24.1448C17.106 23.6215 17.2926 23.0953 17.287 22.362C17.253 18.7707 17.2672 15.1793 17.2728 11.588C17.2728 9.84839 17.8385 9.28769 19.5723 9.28482C23.1417 9.28482 26.7083 9.26469 30.2777 9.30207C30.9395 9.30782 31.3807 9.10079 31.8361 8.62923C34.3392 6.04426 36.8706 3.48805 39.3963 0.926084C40.6295 -0.324706 41.3677 -0.321831 42.615 0.943337C45.1662 3.53118 47.723 6.11327 50.2516 8.72124C50.6589 9.14105 51.0633 9.2992 51.6347 9.29632C55.2748 9.27332 58.912 9.28194 62.5521 9.28769C64.1247 9.28769 64.7158 9.89727 64.7215 11.5075C64.73 13.3391 64.7215 15.1707 64.7215 17.0023V17.011ZM20.6556 48.0507C20.6556 49.7386 20.6923 51.4293 20.6386 53.1143C20.616 53.8619 20.8168 54.089 21.5691 54.0775C24.8189 54.0344 28.0687 54.0775 31.3185 54.0487C32.1925 54.0401 32.8571 54.3104 33.4737 54.9516C35.7449 57.3152 38.0811 59.6155 40.3438 61.9848C40.8784 62.5426 41.1442 62.4909 41.6477 61.9647C43.817 59.6989 46.0628 57.5136 48.2152 55.2305C49.0128 54.3852 49.8471 54.0142 51.0011 54.0372C54.1095 54.1005 57.2178 54.0344 60.3262 54.0775C61.0927 54.089 61.3501 53.9222 61.3388 53.0826C61.285 49.7788 61.3388 46.475 61.3048 43.1712C61.2963 42.3172 61.5537 41.676 62.1533 41.0779C64.4471 38.7891 66.6787 36.4313 68.998 34.1684C69.6655 33.5185 69.575 33.2051 68.964 32.607C66.6533 30.3355 64.4132 27.9892 62.1222 25.6946C61.5537 25.1253 61.2992 24.5071 61.3077 23.6934C61.3359 20.3522 61.2963 17.0138 61.3388 13.6726C61.3473 12.9193 61.1634 12.7151 60.4139 12.7238C57.1641 12.7669 53.9143 12.7238 50.6645 12.7554C49.7849 12.764 49.1231 12.488 48.5093 11.8497C46.2325 9.48897 43.9019 7.18579 41.6364 4.81648C41.1018 4.25865 40.8218 4.32191 40.324 4.84235C38.0783 7.18004 35.776 9.46309 33.5274 11.7979C32.8911 12.4592 32.2094 12.7669 31.2846 12.7554C28.1055 12.7123 24.9236 12.7698 21.7473 12.718C20.9016 12.7036 20.6103 12.8647 20.6301 13.8049C20.698 16.9995 20.6188 20.1969 20.6754 23.3943C20.6952 24.4582 20.3529 25.2202 19.6119 25.9477C17.3294 28.1991 15.1176 30.5224 12.8408 32.7796C12.3345 33.2827 12.3656 33.5415 12.8521 34.0275C15.1996 36.3623 17.4991 38.7488 19.841 41.0952C20.4067 41.6616 20.6867 42.2741 20.6669 43.0935C20.6273 44.744 20.6556 46.3974 20.6556 48.0507Z" fill="white"/>
<path d="M40.9774 51.7713C38.0472 51.7713 35.1142 51.7771 32.184 51.7713C30.7132 51.7684 30.1476 51.1876 30.1221 49.6924C30.1164 49.2985 30.0995 48.9017 30.1221 48.5078C30.2437 46.6992 29.9128 45.2528 28.6061 43.7059C24.8557 39.2663 26.2388 31.9571 31.1912 28.5009C32.7723 27.3967 34.5146 26.629 36.3558 26.1057C37.3769 25.8153 38.2225 25.3006 38.8844 24.4495C39.6056 23.5207 39.467 22.7098 38.4686 22.175C36.0786 20.8955 34.9812 18.0719 35.8665 15.4811C36.7235 12.9709 39.3228 11.3406 41.758 11.7834C42.9205 11.9962 43.571 12.7438 43.4409 13.7214C43.3079 14.7335 42.5584 15.2655 41.3592 15.1965C40.0808 15.1246 39.17 15.8089 38.9862 16.9792C38.8193 18.046 39.4868 19.0667 40.5616 19.3169C41.594 19.5556 42.335 19.0984 42.8724 18.2214C43.6021 17.0223 44.4563 16.6974 45.3755 17.2581C46.2721 17.8073 46.4305 18.8281 45.7799 19.9926C45.2256 20.9875 44.4421 21.738 43.4296 22.244C42.5782 22.6696 42.3746 23.5092 42.9714 24.2913C43.5597 25.0648 44.2554 25.6744 45.2341 25.9648C47.477 26.6261 49.5897 27.5692 51.4791 29.0213C56.3637 32.7823 56.836 41.1353 52.2541 45.0257C51.9034 45.3218 51.844 45.641 51.8496 46.0522C51.8638 47.3087 51.8694 48.5653 51.8496 49.8218C51.827 51.1704 51.2245 51.7684 49.8782 51.7742C46.9113 51.7857 43.9443 51.7771 40.9774 51.7771V51.7713ZM40.9491 43.3004C43.1043 43.3004 45.2623 43.2372 47.4147 43.3206C49.0212 43.3838 50.1102 42.6449 50.9587 41.3912C52.9357 38.4669 52.172 34.013 49.3182 31.7127C47.9408 30.6056 46.3569 29.9069 44.6967 29.4037C43.4918 29.0386 42.3633 28.5727 41.4582 27.6756C41.0877 27.3076 40.8558 27.3507 40.5079 27.6929C39.6537 28.5325 38.6015 29.0098 37.4645 29.352C35.8015 29.8523 34.2091 30.5223 32.8119 31.5976C29.8534 33.875 29.0134 38.3289 30.9819 41.3193C31.8389 42.6219 32.942 43.3896 34.5909 43.3206C36.7065 43.2343 38.8306 43.3004 40.9491 43.3004ZM40.9434 48.3209C43.1665 48.3209 45.3896 48.3065 47.6127 48.3295C48.1727 48.3352 48.515 48.3209 48.4923 47.5618C48.4754 46.8889 48.2944 46.7337 47.6523 46.7394C43.2061 46.7682 38.7599 46.771 34.3137 46.7394C33.6519 46.7337 33.5133 46.9234 33.4879 47.5761C33.4567 48.3554 33.8386 48.3352 34.3788 48.3324C36.5651 48.3151 38.7543 48.3237 40.9406 48.3237L40.9434 48.3209Z" fill="white"/>
</g>
<defs>
<clipPath id="clip0_20_16794">
<rect width="82" height="100" fill="white"/>
</clipPath>
</defs>
</svg>
