<svg width="91" height="100" viewBox="0 0 91 100" fill="none" xmlns="http://www.w3.org/2000/svg">
<g clip-path="url(#clip0_21_16824)">
<path d="M46.9645 17.8229C46.9802 16.9501 46.7968 16.192 45.7882 15.9757C45.1594 15.8403 44.6303 16.0409 44.2635 16.5828C43.881 17.1481 43.9072 18.6514 44.3028 19.1907C44.6957 19.7248 45.2459 19.8837 45.8563 19.7274C46.8492 19.4721 46.9854 18.6827 46.9618 17.8229H46.9645ZM44.012 23.7213C44.0094 24.9693 44.4835 25.6284 45.4214 25.6597C46.0266 25.6805 46.5532 25.4487 46.768 24.8885C47.0771 24.0887 47.1269 23.2394 46.6894 22.4552C46.3881 21.9185 45.8563 21.7648 45.2616 21.8403C44.4128 21.9497 44.0146 22.5516 44.012 23.7213ZM42.4847 19.334C42.0367 19.3105 41.4787 19.3079 41.0464 19.7482C40.5958 20.2068 40.4413 20.7383 40.7006 21.3479C41.0569 22.179 41.7642 22.291 42.5633 22.2728C43.7736 22.2467 44.4757 21.7361 44.4888 20.8164C44.5019 19.8967 43.7919 19.3392 42.4847 19.334ZM48.3948 22.2676C49.6078 22.2728 50.2627 21.8533 50.3832 20.9962C50.5273 19.9723 49.7597 19.3314 48.3948 19.3366C47.1871 19.3418 46.485 19.8811 46.485 20.8008C46.485 21.7231 47.1898 22.265 48.3922 22.2676H48.3948ZM51.8529 30.0366C51.832 29.2394 51.2111 28.6376 50.4042 28.635C49.5606 28.6324 48.9188 29.2837 48.9424 30.12C48.966 30.9537 49.6445 31.5686 50.488 31.5217C51.2871 31.4774 51.8739 30.8365 51.8503 30.0366H51.8529ZM40.8552 36.1409C40.8578 35.3411 40.2579 34.7184 39.4562 34.6897C38.6127 34.6611 37.9499 35.2916 37.9472 36.1279C37.9446 36.9277 38.5445 37.553 39.3462 37.579C40.1898 37.6077 40.8526 36.9772 40.8552 36.1409ZM51.8529 40.6273C51.8529 39.8274 51.2504 39.2074 50.4487 39.1813C49.6052 39.1553 48.945 39.7884 48.945 40.6247C48.945 41.4245 49.5475 42.0446 50.3492 42.0706C51.1928 42.0967 51.8529 41.4636 51.8529 40.6273Z" fill="white"/>
<path d="M3.26421 100C3.24587 99.9453 3.24849 99.8593 3.20919 99.8385C2.4809 99.4086 2.25036 98.7547 2.52806 98.0017C2.81623 97.2201 3.49999 97.056 4.28854 97.0638C6.80875 97.0873 9.32895 97.0508 11.8465 97.0872C12.4465 97.0951 12.7975 96.9205 13.0857 96.4021C13.5441 95.5814 14.0655 94.7894 14.5894 94.0052C15.1501 93.1663 15.9412 92.9552 16.6826 93.4059C17.4057 93.8488 17.5733 94.6904 17.0887 95.5371C16.8189 96.0087 16.5176 96.4646 16.143 97.0664C18.8361 97.0664 21.3982 97.0638 23.9629 97.069C24.3271 97.069 24.4581 96.785 24.6362 96.574C27.9764 92.5696 31.3061 88.5522 34.6568 84.5557C35.0393 84.0997 35.0786 83.8991 34.4996 83.5761C32.2754 82.3464 30.067 81.0802 27.8873 79.7749C27.3372 79.4466 27.1433 79.5847 26.8499 80.0589C24.9427 83.1253 23.0067 86.1736 21.0812 89.227C20.8559 89.5839 20.6516 89.9747 20.2376 90.1493C19.6141 90.4098 19.009 90.3681 18.5217 89.8627C18.0397 89.3599 17.8825 88.6564 18.3174 88.1693C19.6351 86.6842 19.4177 84.9256 19.4124 83.1879C19.4072 80.7154 19.3836 78.2404 19.4308 75.7679C19.4438 75.114 19.2081 74.7961 18.6658 74.4861C13.0569 71.292 7.46369 68.0718 1.86526 64.8621C-0.102183 63.7339 -0.453231 62.6137 0.547517 60.5893C1.07933 59.5133 1.60328 58.4321 2.15343 57.3639C2.85029 56.0118 3.76458 55.5402 5.27357 55.8242C5.71369 55.9076 5.85253 55.7434 6.00448 55.4204C6.26646 54.8628 6.53367 54.3053 6.82446 53.7608C7.60777 52.2992 9.03554 51.812 10.4476 52.6639C11.2492 53.1485 11.5584 52.9583 11.954 52.2158C12.5958 51.0122 13.345 49.8658 14.0629 48.7039C15.0243 47.1459 16.287 46.8202 17.8825 47.706C18.3331 47.9561 18.781 48.2167 19.4124 48.5762C19.4124 48.1124 19.4124 47.779 19.4124 47.4481C19.4124 43.3812 19.3915 39.3117 19.4177 35.2448C19.4412 31.5478 21.6916 28.6768 25.1916 27.8613C25.8806 27.6998 26.6063 27.6893 27.3346 27.606C27.4394 27.2725 27.1328 27.1005 27.0176 26.8608C24.72 22.1661 24.5812 17.5546 27.5965 13.0943C28.8697 11.2107 30.57 9.73347 32.3724 8.36307C34.4787 6.76341 36.75 5.40604 38.9558 3.95487C40.3731 3.02217 41.7983 2.09988 43.0924 0.997834C43.5823 0.580983 44.177 0.349109 44.7062 0.0078125H46.2781C50.4513 2.9388 54.8368 5.56496 58.9394 8.59755C59.7515 9.19938 59.8903 10.0435 59.3952 10.7235C58.8608 11.4556 58.0015 11.5624 57.1553 10.9111C53.5584 8.14162 49.4794 6.06779 45.9506 3.20454C45.6703 2.97788 45.4424 2.88669 45.1018 3.16546C42.021 5.70304 38.5105 7.61795 35.2462 9.895C33.6901 10.9814 32.2021 12.1512 30.9341 13.5685C27.9869 16.8616 27.6594 20.5768 29.1763 24.5734C29.5404 25.5321 30.1665 26.3189 30.9105 27.025C31.5655 27.6477 31.7489 28.4136 31.4397 29.2551C31.128 30.1097 30.4495 30.5396 29.5614 30.5865C28.6811 30.6307 27.7956 30.5917 26.9102 30.6099C24.2668 30.6646 22.3937 32.4675 22.3727 35.1067C22.3334 39.9552 22.3596 44.8063 22.3596 49.6574C22.3596 49.9805 22.3282 50.2853 22.7055 50.4833C23.5071 50.9053 24.2825 51.3769 25.244 51.9292C25.244 51.02 25.2361 50.2618 25.244 49.5037C25.2571 48.4147 25.7784 47.7946 26.6744 47.779C27.5992 47.7633 28.1729 48.4225 28.186 49.5428C28.1991 50.5849 28.2384 51.6296 28.1729 52.6665C28.1284 53.3726 28.3563 53.753 28.9876 54.1099C33.2186 56.4938 37.4206 58.9349 41.6385 61.3423C42.9903 62.1134 44.2058 63.0253 45.1018 64.3097C45.3664 64.6875 45.5288 64.8204 45.8484 64.3514C46.7706 63.0045 48.0569 62.0796 49.4689 61.2797C53.6658 58.8985 57.8364 56.4703 62.0359 54.0969C62.6332 53.7608 62.8035 53.3752 62.8009 52.7213C62.7747 47.6122 62.7642 42.5006 62.8088 37.3889C62.8166 36.537 62.6175 36.3234 61.7504 36.3286C57.3989 36.3598 54.2421 33.6686 53.6474 29.4245C53.3121 27.025 54.1033 24.9329 55.7406 23.1639C57.1527 21.6398 57.2889 19.5086 56.0367 17.8386C55.1852 16.7027 54.0718 15.8429 52.9427 15.004C50.7133 13.3523 48.3215 11.9402 46.0187 10.3978C45.741 10.2102 45.5105 10.0617 45.1463 10.3119C42.1624 12.357 38.9663 14.1026 36.2103 16.476C34.6594 17.81 33.6718 19.3549 34.2507 21.5225C34.3974 22.0749 34.6123 22.5386 35.0183 22.9529C37.4049 25.3888 38.0834 28.6038 36.7526 31.5713C35.3327 34.7393 32.8177 36.3572 29.3282 36.326C28.3851 36.3182 28.1074 36.5318 28.165 37.4827C28.2567 39.0069 28.1991 40.5414 28.186 42.0707C28.1755 43.1936 27.5992 43.8527 26.6744 43.8371C25.7784 43.8215 25.2492 43.2014 25.244 42.1124C25.2335 40.0933 25.2283 38.0768 25.244 36.0576C25.2571 34.4267 26.229 33.4731 27.8664 33.4158C28.8436 33.382 29.8207 33.507 30.7927 33.2465C34.311 32.3034 35.6156 28.0098 33.1897 25.295C30.3316 22.0931 30.4102 18.1851 33.4019 15.0874C34.8847 13.5503 36.6504 12.3648 38.4162 11.1898C40.2605 9.96014 42.1362 8.77211 43.9884 7.55282C44.8843 6.96402 45.8248 6.79467 46.7444 7.3965C50.0165 9.54068 53.4352 11.4764 56.4244 14.027C57.9832 15.3584 59.3952 16.8434 59.6991 18.9667C60.0239 21.2308 59.7201 23.3619 57.9832 25.1049C56.4768 26.6186 56.11 28.4501 56.9326 30.4041C57.771 32.3972 59.3716 33.382 61.5486 33.4184C62.0726 33.4263 62.5965 33.408 63.1205 33.4236C64.7526 33.4705 65.7245 34.4371 65.7298 36.0759C65.7429 41.0885 65.735 46.1011 65.735 51.1138C65.735 51.3092 65.735 51.5046 65.735 51.9475C66.7279 51.3665 67.6081 50.8689 68.47 50.3374C68.7294 50.1759 68.6141 49.858 68.6168 49.6079C68.622 44.8219 68.6377 40.0386 68.6141 35.2526C68.601 32.4493 66.741 30.636 63.9248 30.6073C63.1074 30.5995 62.2874 30.6255 61.4701 30.5891C60.5374 30.5474 59.8327 30.1071 59.5236 29.2082C59.2328 28.3667 59.4109 27.5669 60.1052 26.9911C62.7773 24.7688 63.3851 19.1178 61.8106 16.1895C61.7504 16.0748 61.6875 15.9602 61.6299 15.8429C61.1635 14.8633 61.3495 14.0791 62.1512 13.6545C62.9633 13.222 63.765 13.5529 64.2915 14.5611C65.2425 16.3875 65.6695 18.331 65.6145 20.3892C65.5438 22.9346 65.0015 25.3419 63.4977 27.5929C64.2889 27.6711 64.9989 27.6711 65.6748 27.817C69.1852 28.5699 71.5352 31.514 71.564 35.2213C71.5928 39.257 71.5719 43.2926 71.5719 47.3308C71.5719 47.6852 71.5719 48.0421 71.5719 48.4511C72.2608 48.3313 72.7219 47.8962 73.259 47.62C74.6894 46.8853 75.96 47.1745 76.8114 48.5241C77.6628 49.871 78.4828 51.2388 79.2792 52.6196C79.5307 53.0547 79.7193 53.1094 80.1725 52.8593C82.1531 51.7755 83.3739 52.1741 84.372 54.1776C84.5161 54.4694 84.6811 54.7534 84.7964 55.0556C85.0296 55.6601 85.2784 55.944 86.0775 55.7565C87.1516 55.5063 88.0894 56.0378 88.6186 57.0122C89.381 58.4087 90.0988 59.8338 90.7459 61.2849C91.3589 62.6579 90.8585 63.8512 89.3836 64.7057C84.896 67.3006 80.3978 69.8773 75.9049 72.4618C74.6605 73.1782 73.4266 73.9077 72.1665 74.5955C71.7526 74.8222 71.5535 75.0619 71.5587 75.5647C71.5823 78.9829 71.5771 82.4011 71.564 85.8192C71.564 86.2361 71.6976 86.567 71.9124 86.9057C73.9323 90.0946 75.9521 93.2809 77.9483 96.4854C78.2208 96.9205 78.4985 97.1003 79.0329 97.0925C81.4876 97.0586 83.9424 97.0925 86.3971 97.0716C87.2485 97.0638 88.079 97.0768 88.4588 98.0069C88.8125 98.8693 88.2728 99.4529 87.7174 100.008H3.26421V100ZM45.4895 85.2435C46.9775 85.3842 48.29 84.9413 49.5816 84.1961C61.5565 77.2894 73.5471 70.4114 85.5352 63.5255C86.2975 63.0878 87.4397 62.796 87.707 62.1525C88.0108 61.423 87.0153 60.5867 86.735 59.7374C86.4599 58.9037 86.1299 58.7917 85.3151 59.2632C72.9472 66.4018 60.5453 73.4831 48.1879 80.6347C46.3069 81.7237 44.68 81.7211 42.7964 80.632C30.4102 73.4596 17.9846 66.3575 5.58008 59.2111C4.95395 58.8516 4.61077 58.7995 4.33045 59.5602C4.09729 60.1959 3.80126 60.829 3.42401 61.3918C2.99437 62.0353 3.24063 62.288 3.8196 62.6189C16.3552 69.7939 28.8855 76.9768 41.3974 84.1909C42.689 84.936 43.9962 85.3842 45.4895 85.2435ZM82.622 57.2597C82.3312 56.6918 82.1373 56.017 81.7051 55.5689C81.3855 55.238 80.9611 55.7773 80.6257 55.9701C69.7092 62.2255 58.7953 68.4834 47.9023 74.7831C46.2204 75.7575 44.7324 75.7341 43.0479 74.7571C32.0737 68.4079 21.0655 62.1134 10.0677 55.8034C9.84767 55.6757 9.48876 55.4256 9.39707 55.4959C8.86788 55.8971 8.71331 56.5641 8.44348 57.1373C8.20508 57.6479 8.79452 57.674 9.05388 57.8225C20.89 64.638 32.7365 71.4327 44.57 78.2534C45.2564 78.6494 45.7829 78.6286 46.4536 78.2378C50.226 76.0337 54.0195 73.8712 57.8076 71.6958C65.8346 67.087 73.8641 62.4782 81.8885 57.8642C82.1531 57.7104 82.5198 57.6583 82.622 57.2623V57.2597ZM46.9644 70.2134C46.9644 70.4088 46.9644 70.6042 46.9644 70.7996C46.9662 71.5291 47.2998 71.7036 47.9652 71.3232C50.3963 69.932 52.8327 68.5408 55.2612 67.1469C62.2691 63.1243 69.2717 59.0887 76.2927 55.0869C76.8978 54.7404 77.0812 54.5033 76.6385 53.8728C76.0045 52.9688 75.4334 52.0152 74.9251 51.0356C74.5767 50.366 74.2885 50.3921 73.6755 50.7464C66.0022 55.1833 58.3159 59.5993 50.619 63.9945C48.1852 65.3857 46.9697 67.4387 46.9592 70.216L46.9644 70.2134ZM43.9622 71.6854C44.2713 68.6398 43.6321 65.9276 40.8028 64.2759C32.9251 59.6801 24.9951 55.1703 17.0913 50.6136C16.6669 50.3687 16.4495 50.3634 16.1927 50.8324C15.6452 51.8276 15.0741 52.8177 14.4244 53.7504C13.9764 54.3913 13.9895 54.6831 14.7335 55.1077C24.2144 60.5138 33.6718 65.9615 43.1396 71.3884C43.3806 71.5265 43.5954 71.774 43.9648 71.6854H43.9622ZM74.857 97.0664C71.1763 91.2383 67.6003 85.5822 64.04 79.9156C63.7885 79.5144 63.6052 79.4883 63.2096 79.7202C60.9618 81.0359 58.7062 82.3411 56.4296 83.6073C55.8716 83.9174 55.9659 84.1128 56.3091 84.5218C59.6755 88.5418 63.0236 92.5801 66.3769 96.6105C66.5838 96.858 66.7672 97.0794 67.168 97.0768C69.6751 97.056 72.1823 97.0664 74.8596 97.0664H74.857ZM62.9083 97.0299C62.1879 96.165 61.5617 95.4589 60.9906 94.7086C60.6998 94.3282 60.3776 94.211 59.9113 94.2136C50.2968 94.2266 40.6823 94.2214 31.0703 94.224C30.7848 94.224 30.4704 94.1459 30.2477 94.4142C29.5535 95.2505 28.8645 96.0894 28.0891 97.0273H62.9057L62.9083 97.0299ZM32.9042 91.2305H58.0696C56.5632 89.4198 55.1433 87.742 53.768 86.0329C53.3881 85.5613 53.1183 85.5014 52.5786 85.8192C51.2923 86.5774 50.0793 87.5518 48.5965 87.8592C45.6991 88.4584 42.8252 88.5392 40.174 86.864C39.5427 86.4654 38.8799 86.111 38.2328 85.7359C37.9813 85.59 37.7586 85.3972 37.4783 85.7359C35.9981 87.5309 34.5022 89.3156 32.9042 91.2331V91.2305ZM22.3858 81.6325C23.1822 80.3663 23.8346 79.3112 24.5105 78.269C24.6493 78.0554 24.6415 77.9173 24.4266 77.8131C23.7481 77.4822 23.1718 76.9429 22.3858 76.7762V81.6351V81.6325ZM68.5932 76.6668C67.857 77.0784 67.244 77.4197 66.631 77.7636C66.4214 77.8808 66.2747 77.9798 66.4686 78.2742C67.1497 79.3112 67.7968 80.3663 68.5932 81.6325V76.6668Z" fill="white"/>
<path d="M46.9645 17.8229C46.988 18.6827 46.8518 19.4721 45.8589 19.7274C45.2485 19.8837 44.6957 19.7248 44.3054 19.1907C43.9098 18.654 43.8862 17.1507 44.2661 16.5828C44.6329 16.0383 45.1594 15.8403 45.7908 15.9757C46.7994 16.192 46.9802 16.9501 46.9645 17.8229Z" fill="white"/>
<path d="M44.012 23.7213C44.0146 22.5516 44.4128 21.9497 45.2616 21.8403C45.8563 21.7647 46.3881 21.9185 46.6894 22.4552C47.1269 23.2368 47.0771 24.0887 46.768 24.8885C46.5505 25.4487 46.024 25.6805 45.4214 25.6597C44.4835 25.6284 44.0094 24.9693 44.012 23.7213Z" fill="white"/>
<path d="M42.4847 19.3341C43.7945 19.342 44.5019 19.8969 44.4888 20.8166C44.4757 21.7362 43.7736 22.2469 42.5632 22.2729C41.7642 22.2912 41.0569 22.1765 40.7006 21.3481C40.4386 20.7384 40.5932 20.2069 41.0464 19.7484C41.4787 19.3081 42.0367 19.3107 42.4847 19.3341Z" fill="white"/>
<path d="M48.3948 22.2677C47.1897 22.2625 46.4876 21.7232 46.4876 20.8009C46.4876 19.8812 47.1897 19.3419 48.3974 19.3367C49.7623 19.3315 50.5299 19.9724 50.3858 20.9963C50.2653 21.856 49.6104 22.2729 48.3974 22.2677H48.3948Z" fill="white"/>
<path d="M51.8529 30.034C51.8739 30.8339 51.2871 31.4748 50.4907 31.5191C49.6471 31.5659 48.9686 30.9511 48.945 30.1174C48.9214 29.2785 49.5633 28.6271 50.4068 28.6324C51.2111 28.635 51.832 29.2368 51.8555 30.034H51.8529Z" fill="white"/>
<path d="M40.8552 36.1384C40.8526 36.9747 40.1871 37.6078 39.3462 37.5765C38.5445 37.5479 37.9446 36.9252 37.9472 36.1254C37.9499 35.289 38.6127 34.6586 39.4562 34.6872C40.2579 34.7159 40.8604 35.3386 40.8552 36.1384Z" fill="white"/>
<path d="M51.8529 40.6247C51.8529 41.461 51.1927 42.0941 50.3492 42.0681C49.5475 42.042 48.945 41.4219 48.945 40.6221C48.945 39.7858 49.6052 39.1527 50.4487 39.1788C51.2504 39.2048 51.8529 39.8249 51.8529 40.6247Z" fill="white"/>
<path d="M30.0513 85.3346C30.0591 86.1344 29.4618 86.7623 28.6602 86.7962C27.8166 86.83 27.1486 86.2022 27.1407 85.3659C27.1329 84.5295 27.7852 83.8886 28.6287 83.9069C29.4304 83.9225 30.0408 84.5374 30.0487 85.3372L30.0513 85.3346Z" fill="white"/>
<path d="M63.8305 85.3869C63.8095 86.2206 63.1362 86.838 62.2927 86.7911C61.4937 86.7468 60.9068 86.1137 60.9252 85.3113C60.9435 84.4776 61.6194 83.8627 62.463 83.907C63.262 83.9487 63.8488 84.5844 63.8305 85.3843V85.3869Z" fill="white"/>
</g>
<defs>
<clipPath id="clip0_21_16824">
<rect width="91" height="100" fill="white"/>
</clipPath>
</defs>
</svg>
